#format: frame checksums
#version: 1
#hash: MD5
#tb 0: 1001/30000
#stream#, dts,        pts, duration,     size, hash
0,          0,          0,        1,    58800, 651a0627c6cdaee8b46e1f8c4121a368
0,          1,          1,        1,    58800, 3e63075148df16f69c933cf6c63e078c
0,          2,          2,        1,    58800, edf18e52b7d52af2bb7594ed358542d8
0,          3,          3,        1,    58800, 30284124756d00d10f4f8428206ceab8
0,          4,          4,        1,    58800, 6f6ecde53cd0ea5298f4529d396460c6
0,          5,          5,        1,    58800, 0431d389278957fbef3e72f69f3ce008
0,          6,          6,        1,    58800, a047c60c4c60d2ea1f79c86dc98cdf8e
0,          7,          7,        1,    58800, dceda8bf128a8cdcadfa6c5db49cde51
0,          8,          8,        1,    58800, d8a6283637f5abda17e0bf150eac2983
0,          9,          9,        1,    58800, 33dca31ef26fdd0daf9971c8de685d01
